Pacifico-Normal.ufo
<glyph name="quotedbl" format="1">
  <advance width="1184"/>
  <unicode hex="0022"/>
  <outline>
    <contour>
      <point x="664" y="1135" type="curve" smooth="yes"/>
      <point x="711" y="1135"/>
      <point x="746" y="1180"/>
      <point x="756" y="1230" type="curve" smooth="yes"/>
      <point x="783" y="1373"/>
      <point x="802" y="1543"/>
      <point x="822" y="1747" type="curve"/>
      <point x="823" y="1752"/>
      <point x="823" y="1757"/>
      <point x="823" y="1762" type="curve" smooth="yes"/>
      <point x="823" y="1825"/>
      <point x="776" y="1856"/>
      <point x="724" y="1856" type="curve" smooth="yes"/>
      <point x="651" y="1856"/>
      <point x="576" y="1810"/>
      <point x="576" y="1728" type="curve" smooth="yes"/>
      <point x="576" y="1559"/>
      <point x="584" y="1405"/>
      <point x="584" y="1233" type="curve" smooth="yes"/>
      <point x="584" y="1177"/>
      <point x="613" y="1135"/>
    </contour>
    <contour>
      <point x="310" y="1135" type="curve" smooth="yes"/>
      <point x="352" y="1135"/>
      <point x="385" y="1180"/>
      <point x="392" y="1230" type="curve" smooth="yes"/>
      <point x="410" y="1373"/>
      <point x="428" y="1577"/>
      <point x="428" y="1747" type="curve" smooth="yes"/>
      <point x="428" y="1820"/>
      <point x="382" y="1856"/>
      <point x="320" y="1856" type="curve" smooth="yes"/>
      <point x="257" y="1856"/>
      <point x="192" y="1810"/>
      <point x="192" y="1728" type="curve" smooth="yes"/>
      <point x="192" y="1559"/>
      <point x="214" y="1383"/>
      <point x="230" y="1233" type="curve" smooth="yes"/>
      <point x="237" y="1177"/>
      <point x="259" y="1135"/>
    </contour>
  </outline>
</glyph>
<glyph name="plus" format="1">
  <advance width="1503"/>
  <unicode hex="002B"/>
  <outline>
    <contour>
      <point x="768" y="60" type="curve" smooth="yes"/>
      <point x="834" y="60"/>
      <point x="865" y="124"/>
      <point x="865" y="193" type="curve" smooth="yes"/>
      <point x="865" y="416" type="line"/>
      <point x="1096" y="416" type="line" smooth="yes"/>
      <point x="1162" y="416"/>
      <point x="1215" y="460"/>
      <point x="1215" y="525" type="curve" smooth="yes"/>
      <point x="1215" y="577"/>
      <point x="1174" y="608"/>
      <point x="1115" y="608" type="curve" smooth="yes"/>
      <point x="865" y="608" type="line"/>
      <point x="865" y="855" type="line" smooth="yes"/>
      <point x="865" y="914"/>
      <point x="834" y="955"/>
      <point x="782" y="955" type="curve" smooth="yes"/>
      <point x="717" y="955"/>
      <point x="673" y="902"/>
      <point x="673" y="836" type="curve" smooth="yes"/>
      <point x="673" y="608" type="line"/>
      <point x="453" y="608" type="line" smooth="yes"/>
      <point x="384" y="608"/>
      <point x="320" y="577"/>
      <point x="320" y="511" type="curve" smooth="yes"/>
      <point x="320" y="446"/>
      <point x="381" y="416"/>
      <point x="449" y="416" type="curve" smooth="yes"/>
      <point x="673" y="416" type="line"/>
      <point x="673" y="189" type="line" smooth="yes"/>
      <point x="673" y="121"/>
      <point x="703" y="60"/>
    </contour>
  </outline>
</glyph>
<glyph name="comma" format="1">
  <advance width="849"/>
  <unicode hex="002C"/>
  <outline>
    <contour>
      <point x="254" y="-223" type="curve" smooth="yes"/>
      <point x="395" y="-183"/>
      <point x="602" y="-29"/>
      <point x="602" y="183" type="curve" smooth="yes"/>
      <point x="602" y="260"/>
      <point x="569" y="333"/>
      <point x="474" y="321" type="curve" smooth="yes"/>
      <point x="395" y="311"/>
      <point x="366" y="273"/>
      <point x="359" y="218" type="curve" smooth="yes"/>
      <point x="339" y="53"/>
      <point x="275" y="-22"/>
      <point x="194" y="-159" type="curve" smooth="yes"/>
      <point x="166" y="-206"/>
      <point x="209" y="-236"/>
    </contour>
  </outline>
</glyph>
<glyph name="three" format="1">
  <advance width="1129"/>
  <unicode hex="0033"/>
  <outline>
    <contour>
      <point x="500" y="-18" type="curve" smooth="yes"/>
      <point x="861" y="-18"/>
      <point x="1088" y="163"/>
      <point x="1088" y="452" type="curve" smooth="yes"/>
      <point x="1088" y="641"/>
      <point x="961" y="793"/>
      <point x="758" y="845" type="curve"/>
      <point x="946" y="905"/>
      <point x="1064" y="1028"/>
      <point x="1064" y="1165" type="curve" smooth="yes"/>
      <point x="1064" y="1351"/>
      <point x="925" y="1465"/>
      <point x="701" y="1465" type="curve" smooth="yes"/>
      <point x="574" y="1465"/>
      <point x="219" y="1425"/>
      <point x="219" y="1213" type="curve" smooth="yes"/>
      <point x="219" y="1173"/>
      <point x="248" y="1148"/>
      <point x="293" y="1148" type="curve" smooth="yes"/>
      <point x="345" y="1148"/>
      <point x="441" y="1259"/>
      <point x="572" y="1259" type="curve" smooth="yes"/>
      <point x="670" y="1259"/>
      <point x="732" y="1205"/>
      <point x="732" y="1119" type="curve" smooth="yes"/>
      <point x="732" y="975"/>
      <point x="621" y="884"/>
      <point x="444" y="884" type="curve" smooth="yes"/>
      <point x="371" y="884"/>
      <point x="325" y="856"/>
      <point x="325" y="812" type="curve" smooth="yes"/>
      <point x="325" y="777"/>
      <point x="355" y="755"/>
      <point x="402" y="755" type="curve" smooth="yes"/>
      <point x="620" y="755"/>
      <point x="757" y="640"/>
      <point x="757" y="456" type="curve" smooth="yes"/>
      <point x="757" y="265"/>
      <point x="651" y="142"/>
      <point x="481" y="137" type="curve" smooth="yes"/>
      <point x="325" y="132"/>
      <point x="227" y="201"/>
      <point x="227" y="317" type="curve" smooth="yes"/>
      <point x="227" y="370"/>
      <point x="256" y="418"/>
      <point x="256" y="463" type="curve" smooth="yes"/>
      <point x="256" y="507"/>
      <point x="224" y="534"/>
      <point x="173" y="534" type="curve" smooth="yes"/>
      <point x="66" y="534"/>
      <point x="-1" y="452"/>
      <point x="-1" y="321" type="curve" smooth="yes"/>
      <point x="-1" y="113"/>
      <point x="192" y="-18"/>
    </contour>
  </outline>
</glyph>
<glyph name="less" format="1">
  <advance width="1184"/>
  <unicode hex="003C"/>
  <outline>
    <contour>
      <point x="936" y="126" type="curve" smooth="yes"/>
      <point x="991.999" y="126"/>
      <point x="1039" y="153"/>
      <point x="1039" y="205" type="curve" smooth="yes"/>
      <point x="1039" y="287"/>
      <point x="968.999" y="351"/>
      <point x="909" y="373" type="curve" smooth="yes"/>
      <point x="254" y="613" type="line"/>
      <point x="1056" y="872" type="line" smooth="yes"/>
      <point x="1100" y="885"/>
      <point x="1134" y="907"/>
      <point x="1134" y="962" type="curve" smooth="yes"/>
      <point x="1134" y="1040"/>
      <point x="1104" y="1125"/>
      <point x="1024" y="1125" type="curve" smooth="yes"/>
      <point x="1009" y="1125"/>
      <point x="994.999" y="1123"/>
      <point x="979.999" y="1118" type="curve" smooth="yes"/>
      <point x="785" y="1055"/>
      <point x="576" y="960"/>
      <point x="394" y="880" type="curve" smooth="yes"/>
      <point x="274" y="827"/>
      <point x="58" y="798"/>
      <point x="58" y="626" type="curve" smooth="yes"/>
      <point x="58" y="388"/>
      <point x="300" y="340"/>
      <point x="493" y="275" type="curve" smooth="yes"/>
      <point x="629" y="229"/>
      <point x="771" y="126"/>
    </contour>
  </outline>
</glyph>
<glyph name="B" format="1">
  <advance width="1642"/>
  <unicode hex="0042"/>
  <outline>
    <contour>
      <point x="529" y="-176" type="curve" smooth="yes"/>
      <point x="1018" y="-176"/>
      <point x="1554" y="174"/>
      <point x="1554" y="550" type="curve" smooth="yes"/>
      <point x="1554" y="758"/>
      <point x="1360" y="890"/>
      <point x="1160" y="912" type="curve"/>
      <point x="1535" y="946"/>
      <point x="1709" y="1188"/>
      <point x="1733" y="1372" type="curve" smooth="yes"/>
      <point x="1772" y="1672"/>
      <point x="1465" y="1977"/>
      <point x="915" y="1977" type="curve" smooth="yes"/>
      <point x="475" y="1977"/>
      <point x="222" y="1812"/>
      <point x="47" y="1641" type="curve" smooth="yes"/>
      <point x="-41" y="1555"/>
      <point x="87" y="1368"/>
      <point x="237" y="1501" type="curve" smooth="yes"/>
      <point x="404" y="1649"/>
      <point x="588" y="1753"/>
      <point x="925" y="1753" type="curve" smooth="yes"/>
      <point x="1279" y="1753"/>
      <point x="1440" y="1579"/>
      <point x="1440" y="1398" type="curve" smooth="yes"/>
      <point x="1440" y="1255"/>
      <point x="1317" y="1014"/>
      <point x="907" y="1019" type="curve" smooth="yes"/>
      <point x="822" y="1020" type="line" smooth="yes"/>
      <point x="754" y="1021"/>
      <point x="699" y="1005"/>
      <point x="699" y="938" type="curve" smooth="yes"/>
      <point x="698" y="767"/>
      <point x="1286" y="901"/>
      <point x="1286" y="535" type="curve" smooth="yes"/>
      <point x="1286" y="298"/>
      <point x="929" y="24"/>
      <point x="522" y="24" type="curve" smooth="yes"/>
      <point x="447" y="24"/>
      <point x="447" y="42"/>
      <point x="447" y="102" type="curve" smooth="yes"/>
      <point x="447" y="510"/>
      <point x="524" y="1194"/>
      <point x="701" y="1432" type="curve"/>
      <point x="668" y="1487"/>
      <point x="628" y="1514"/>
      <point x="579" y="1514" type="curve" smooth="yes"/>
      <point x="220" y="1514"/>
      <point x="159" y="398"/>
      <point x="159" y="4" type="curve" smooth="yes"/>
      <point x="159" y="-112"/>
      <point x="303" y="-176"/>
    </contour>
  </outline>
</glyph>
<glyph name="T" format="1">
  <advance width="1366"/>
  <unicode hex="0054"/>
  <outline>
    <contour>
      <point x="889" y="-254" type="curve" smooth="yes"/>
      <point x="981" y="-254"/>
      <point x="1036" y="-204"/>
      <point x="1052" y="-105" type="curve" smooth="yes"/>
      <point x="1072" y="19"/>
      <point x="852" y="385"/>
      <point x="1278" y="1549" type="curve"/>
      <point x="2057" y="1540"/>
      <point x="2074" y="1532"/>
      <point x="2284" y="1576" type="curve" smooth="yes"/>
      <point x="2351" y="1590"/>
      <point x="2459" y="1931"/>
      <point x="2236" y="1857" type="curve" smooth="yes"/>
      <point x="1283" y="1541"/>
      <point x="201" y="2244"/>
      <point x="-268" y="1050" type="curve" smooth="yes"/>
      <point x="-322" y="912"/>
      <point x="-37" y="910"/>
      <point x="-2" y="987" type="curve" smooth="yes"/>
      <point x="96" y="1204"/>
      <point x="245" y="1580"/>
      <point x="1086" y="1563" type="curve"/>
      <point x="564" y="511"/>
      <point x="719" y="-30"/>
      <point x="742" y="-120" type="curve" smooth="yes"/>
      <point x="762" y="-197"/>
      <point x="800" y="-254"/>
    </contour>
  </outline>
</glyph>
<glyph name="X" format="1">
  <advance width="1746"/>
  <unicode hex="0058"/>
  <outline>
    <contour>
      <point x="1633" y="-35"/>
      <point x="1563" y="-68"/>
      <point x="1498" y="-68" type="curve" smooth="yes"/>
      <point x="1276" y="-68"/>
      <point x="1104" y="431"/>
      <point x="1002" y="924" type="curve" smooth="yes"/>
      <point x="908" y="1488"/>
      <point x="744" y="1753"/>
      <point x="408" y="1753" type="curve" smooth="yes"/>
      <point x="-44" y="1753"/>
      <point x="-285" y="1165"/>
      <point x="1215" y="726" type="curve" smooth="yes"/>
      <point x="1365" y="682"/>
      <point x="1415" y="811"/>
      <point x="1336" y="836" type="curve" smooth="yes"/>
      <point x="236" y="1185"/>
      <point x="158" y="1508"/>
      <point x="375" y="1508" type="curve" smooth="yes"/>
      <point x="557" y="1508"/>
      <point x="690" y="1399"/>
      <point x="802" y="849" type="curve" smooth="yes"/>
      <point x="889" y="419"/>
      <point x="966" y="-279"/>
      <point x="1423" y="-279" type="curve" smooth="yes"/>
      <point x="1641" y="-279"/>
      <point x="1712" y="-212"/>
      <point x="1763" y="-190" type="curve"/>
      <point x="1783" y="-176"/>
      <point x="1792" y="-157"/>
      <point x="1792" y="-137" type="curve" smooth="yes"/>
      <point x="1792" y="-89"/>
      <point x="1744" y="-35"/>
      <point x="1700" y="-35" type="curve" smooth="yes"/>
    </contour>
    <contour>
      <point x="-66" y="-358"/>
      <point x="131" y="-397"/>
      <point x="184" y="-308" type="curve" smooth="yes"/>
      <point x="281" y="-143"/>
      <point x="1335" y="1186"/>
      <point x="1815" y="1489" type="curve" smooth="yes"/>
      <point x="2028" y="1620"/>
      <point x="2040" y="1777"/>
      <point x="1939" y="1811" type="curve" smooth="yes"/>
      <point x="1486" y="1963"/>
      <point x="106" y="-1"/>
      <point x="8" y="-204" type="curve" smooth="yes"/>
    </contour>
  </outline>
</glyph>
<glyph name="asciicircum" format="1">
  <advance width="1089"/>
  <unicode hex="005E"/>
  <outline>
    <contour>
      <point x="197" y="504" type="curve" smooth="yes"/>
      <point x="198" y="504"/>
      <point x="198" y="503"/>
      <point x="198" y="504" type="curve" smooth="yes"/>
      <point x="198" y="505"/>
      <point x="197" y="508"/>
      <point x="194" y="511" type="curve"/>
      <point x="254" y="511"/>
      <point x="291" y="554"/>
      <point x="318" y="603" type="curve"/>
      <point x="578" y="1124" type="line"/>
      <point x="784" y="642" type="line" smooth="yes"/>
      <point x="808" y="587"/>
      <point x="858" y="508"/>
      <point x="933" y="508" type="curve" smooth="yes"/>
      <point x="986.999" y="508"/>
      <point x="1023" y="566"/>
      <point x="1023" y="622" type="curve" smooth="yes"/>
      <point x="1023" y="640"/>
      <point x="1021" y="660"/>
      <point x="1013" y="680" type="curve" smooth="yes"/>
      <point x="945" y="859"/>
      <point x="865" y="1031"/>
      <point x="785" y="1189" type="curve" smooth="yes"/>
      <point x="742" y="1273"/>
      <point x="687" y="1344"/>
      <point x="567" y="1344" type="curve" smooth="yes"/>
      <point x="447" y="1344"/>
      <point x="395" y="1228"/>
      <point x="344" y="1132" type="curve" smooth="yes"/>
      <point x="293" y="1037"/>
      <point x="237" y="930"/>
      <point x="186" y="832" type="curve" smooth="yes"/>
      <point x="153" y="768"/>
      <point x="92.9999" y="702"/>
      <point x="92.9999" y="621" type="curve" smooth="yes"/>
      <point x="92.9999" y="570"/>
      <point x="186" y="504"/>
    </contour>
  </outline>
</glyph>
<glyph name="b" format="1">
  <advance width="1134.997"/>
  <unicode hex="0062"/>
  <outline>
    <contour>
      <point x="942" y="353" type="curve" smooth="yes"/>
      <point x="1091" y="353"/>
      <point x="1262" y="427"/>
      <point x="1348" y="506" type="curve" smooth="yes"/>
      <point x="1377" y="533"/>
      <point x="1382" y="548"/>
      <point x="1382" y="585" type="curve" smooth="yes"/>
      <point x="1382" y="629"/>
      <point x="1358" y="682"/>
      <point x="1318" y="682" type="curve" smooth="yes"/>
      <point x="1278" y="682"/>
      <point x="1164" y="563"/>
      <point x="1006" y="563" type="curve" smooth="yes"/>
      <point x="884" y="563"/>
      <point x="915" y="655"/>
      <point x="822" y="748" type="curve"/>
      <point x="734" y="706"/>
      <point x="682" y="603"/>
      <point x="682" y="537" type="curve" smooth="yes"/>
      <point x="682" y="414"/>
      <point x="796" y="353"/>
    </contour>
    <contour>
      <point x="551" y="-16" type="curve" smooth="yes"/>
      <point x="866" y="-16"/>
      <point x="1039" y="277"/>
      <point x="1039" y="674" type="curve" smooth="yes"/>
      <point x="1039" y="831"/>
      <point x="942" y="931"/>
      <point x="845" y="946" type="curve" smooth="yes"/>
      <point x="752" y="960"/>
      <point x="607" y="865"/>
      <point x="607" y="865" type="curve"/>
      <point x="771" y="996"/>
      <point x="999" y="1335"/>
      <point x="1040" y="1591" type="curve" smooth="yes"/>
      <point x="1070" y="1784"/>
      <point x="1051" y="1920"/>
      <point x="857" y="1920" type="curve" smooth="yes"/>
      <point x="471" y="1920"/>
      <point x="124" y="978"/>
      <point x="126" y="408" type="curve" smooth="yes"/>
      <point x="127" y="156"/>
      <point x="275" y="-16"/>
    </contour>
    <contour>
      <point x="577" y="176" type="curve" smooth="yes"/>
      <point x="439" y="176"/>
      <point x="386" y="296"/>
      <point x="386" y="428" type="curve" smooth="yes"/>
      <point x="386" y="591"/>
      <point x="473" y="774"/>
      <point x="655" y="774" type="curve" smooth="yes"/>
      <point x="767" y="774"/>
      <point x="812" y="675"/>
      <point x="812" y="557" type="curve" smooth="yes"/>
      <point x="812" y="386"/>
      <point x="716" y="176"/>
    </contour>
    <contour>
      <point x="405" y="772" type="curve"/>
      <point x="418" y="1066"/>
      <point x="636" y="1678"/>
      <point x="794" y="1678" type="curve" smooth="yes"/>
      <point x="830" y="1678"/>
      <point x="849" y="1663"/>
      <point x="843" y="1578" type="curve" smooth="yes"/>
      <point x="824" y="1317"/>
      <point x="559" y="999"/>
    </contour>
  </outline>
</glyph>
<glyph name="h" format="1">
  <advance width="1034"/>
  <unicode hex="0068"/>
  <outline>
    <contour>
      <point x="389" y="838" type="curve"/>
      <point x="424" y="1051"/>
      <point x="590" y="1719"/>
      <point x="786" y="1678" type="curve" smooth="yes"/>
      <point x="813" y="1672"/>
      <point x="821" y="1652"/>
      <point x="819" y="1608" type="curve"/>
      <point x="804" y="1434"/>
      <point x="625" y="1081"/>
    </contour>
    <contour>
      <point x="163" y="0" type="curve" smooth="yes"/>
      <point x="251" y="-17"/>
      <point x="284" y="39"/>
      <point x="317" y="112" type="curve" smooth="yes"/>
      <point x="407" y="313"/>
      <point x="520" y="455"/>
      <point x="605" y="561" type="curve" smooth="yes"/>
      <point x="727" y="713"/>
      <point x="568" y="429"/>
      <point x="552" y="185" type="curve" smooth="yes"/>
      <point x="542" y="34"/>
      <point x="636" y="-20"/>
      <point x="771" y="0" type="curve" smooth="yes"/>
      <point x="939" y="25"/>
      <point x="1086" y="123"/>
      <point x="1187" y="196" type="curve" smooth="yes"/>
      <point x="1229" y="228"/>
      <point x="1245" y="271"/>
      <point x="1245" y="311" type="curve" smooth="yes"/>
      <point x="1245" y="367"/>
      <point x="1215" y="415"/>
      <point x="1179" y="415" type="curve" smooth="yes"/>
      <point x="1171" y="415"/>
      <point x="1163" y="412"/>
      <point x="1155" y="407" type="curve"/>
      <point x="1129" y="383"/>
      <point x="895" y="194"/>
      <point x="818" y="194" type="curve" smooth="yes"/>
      <point x="803" y="194"/>
      <point x="794" y="200"/>
      <point x="794" y="213" type="curve" smooth="yes"/>
      <point x="794" y="347"/>
      <point x="931" y="606"/>
      <point x="998.999" y="807" type="curve" smooth="yes"/>
      <point x="1029" y="897"/>
      <point x="964" y="966"/>
      <point x="870" y="966" type="curve" smooth="yes"/>
      <point x="781" y="966"/>
      <point x="643" y="857"/>
      <point x="337" y="480" type="curve"/>
      <point x="383" y="651" type="line"/>
      <point x="888" y="1134"/>
      <point x="1003" y="1434"/>
      <point x="1033" y="1664" type="curve"/>
      <point x="1045" y="1812"/>
      <point x="971.999" y="1920"/>
      <point x="837" y="1920" type="curve" smooth="yes"/>
      <point x="378" y="1920"/>
      <point x="140" y="900"/>
      <point x="93.9999" y="333" type="curve" smooth="yes"/>
      <point x="85" y="236"/>
      <point x="69" y="18"/>
    </contour>
  </outline>
</glyph>
<glyph name="l" format="1">
  <advance width="729.999"/>
  <unicode hex="006C"/>
  <outline>
    <contour>
      <point x="402" y="772" type="curve"/>
      <point x="446" y="1069"/>
      <point x="608" y="1680"/>
      <point x="793" y="1680" type="curve" smooth="yes"/>
      <point x="829" y="1680"/>
      <point x="843" y="1662"/>
      <point x="843" y="1620" type="curve" smooth="yes"/>
      <point x="843" y="1383"/>
      <point x="597" y="996"/>
    </contour>
    <contour>
      <point x="443" y="-9" type="curve" smooth="yes"/>
      <point x="608" y="-9"/>
      <point x="757" y="62"/>
      <point x="919" y="243" type="curve" smooth="yes"/>
      <point x="1018" y="352"/>
      <point x="875" y="450"/>
      <point x="816" y="383" type="curve" smooth="yes"/>
      <point x="715" y="269"/>
      <point x="597" y="177"/>
      <point x="492" y="177" type="curve" smooth="yes"/>
      <point x="344" y="177"/>
      <point x="365" y="392"/>
      <point x="388" y="560" type="curve"/>
      <point x="695" y="801"/>
      <point x="1027" y="1275"/>
      <point x="1058" y="1696" type="curve" smooth="yes"/>
      <point x="1068" y="1818"/>
      <point x="990" y="1920"/>
      <point x="861" y="1920" type="curve" smooth="yes"/>
      <point x="441" y="1920"/>
      <point x="184" y="1032"/>
      <point x="144" y="526" type="curve" smooth="yes"/>
      <point x="119" y="205"/>
      <point x="193" y="-9"/>
    </contour>
  </outline>
</glyph>
<glyph name="o" format="1">
  <advance width="942"/>
  <unicode hex="006F"/>
  <outline>
    <contour>
      <point x="439" y="172" type="curve" smooth="yes"/>
      <point x="327" y="172"/>
      <point x="290" y="258"/>
      <point x="290" y="365" type="curve" smooth="yes"/>
      <point x="290" y="537"/>
      <point x="403" y="766"/>
      <point x="560" y="766" type="curve" smooth="yes"/>
      <point x="603" y="766"/>
      <point x="628" y="718"/>
      <point x="625" y="714" type="curve" smooth="yes"/>
      <point x="511" y="566"/>
      <point x="526" y="490"/>
      <point x="656" y="428" type="curve"/>
      <point x="645" y="321"/>
      <point x="549" y="172"/>
    </contour>
    <contour>
      <point x="375" y="-16" type="curve" smooth="yes"/>
      <point x="669" y="-16"/>
      <point x="797" y="220"/>
      <point x="837" y="374" type="curve"/>
      <point x="939" y="383"/>
      <point x="1137" y="452"/>
      <point x="1222" y="536" type="curve" smooth="yes"/>
      <point x="1268" y="582"/>
      <point x="1197" y="725"/>
      <point x="1143" y="689" type="curve" smooth="yes"/>
      <point x="1057" y="632"/>
      <point x="987.999" y="581"/>
      <point x="864" y="563" type="curve"/>
      <point x="915" y="790"/>
      <point x="776" y="966"/>
      <point x="588" y="966" type="curve" smooth="yes"/>
      <point x="304" y="966"/>
      <point x="64" y="672"/>
      <point x="64" y="353" type="curve" smooth="yes"/>
      <point x="64" y="148"/>
      <point x="175" y="-16"/>
    </contour>
  </outline>
</glyph>
<glyph name="braceleft" format="1">
  <advance width="1153"/>
  <unicode hex="007B"/>
  <outline>
    <contour>
      <point x="570" y="-312" type="curve" smooth="yes"/>
      <point x="731" y="-312"/>
      <point x="1019" y="-255"/>
      <point x="1019" y="-87" type="curve" smooth="yes"/>
      <point x="1019" y="-26"/>
      <point x="985.999" y="18"/>
      <point x="926" y="18" type="curve" smooth="yes"/>
      <point x="828" y="18"/>
      <point x="778" y="-56"/>
      <point x="675" y="-56" type="curve" smooth="yes"/>
      <point x="596" y="-56"/>
      <point x="580" y="4"/>
      <point x="580" y="86" type="curve" smooth="yes"/>
      <point x="580" y="234"/>
      <point x="627" y="378"/>
      <point x="627" y="534" type="curve" smooth="yes"/>
      <point x="627" y="662"/>
      <point x="591" y="755"/>
      <point x="488" y="781" type="curve"/>
      <point x="576" y="813"/>
      <point x="627" y="882"/>
      <point x="660" y="967.999" type="curve" smooth="yes"/>
      <point x="717" y="1118"/>
      <point x="698" y="1568"/>
      <point x="900" y="1568" type="curve" smooth="yes"/>
      <point x="999.999" y="1568"/>
      <point x="1088" y="1536"/>
      <point x="1183" y="1536" type="curve" smooth="yes"/>
      <point x="1251" y="1536"/>
      <point x="1305" y="1601"/>
      <point x="1305" y="1669" type="curve" smooth="yes"/>
      <point x="1305" y="1695"/>
      <point x="1294" y="1715"/>
      <point x="1278" y="1728" type="curve"/>
      <point x="1185" y="1798"/>
      <point x="1037" y="1824"/>
      <point x="877" y="1824" type="curve" smooth="yes"/>
      <point x="639" y="1824"/>
      <point x="520" y="1597"/>
      <point x="487" y="1384" type="curve"/>
      <point x="487" y="1176" type="line" smooth="yes"/>
      <point x="487" y="1022"/>
      <point x="428" y="924"/>
      <point x="254" y="920" type="curve" smooth="yes"/>
      <point x="176" y="918"/>
      <point x="132" y="818"/>
      <point x="132" y="735" type="curve" smooth="yes"/>
      <point x="132" y="680"/>
      <point x="154" y="632"/>
      <point x="209" y="632" type="curve" smooth="yes"/>
      <point x="320" y="632"/>
      <point x="365" y="549"/>
      <point x="365" y="439" type="curve" smooth="yes"/>
      <point x="365" y="298"/>
      <point x="312" y="170"/>
      <point x="312" y="23" type="curve" smooth="yes"/>
      <point x="312" y="-160"/>
      <point x="389" y="-312"/>
    </contour>
  </outline>
</glyph>
<glyph name="threequarters" format="1">
  <advance width="1793"/>
  <unicode hex="00BE"/>
  <outline>
    <contour>
      <point x="1396" y="-45" type="curve" smooth="yes"/>
      <point x="1451" y="-45"/>
      <point x="1513" y="-38"/>
      <point x="1569" y="-38" type="curve" smooth="yes"/>
      <point x="1580" y="-38"/>
      <point x="1584" y="-37"/>
      <point x="1584" y="-28" type="curve" smooth="yes"/>
      <point x="1584" y="28"/>
      <point x="1492" y="65"/>
      <point x="1492" y="130" type="curve" smooth="yes"/>
      <point x="1492" y="149" type="line"/>
      <point x="1495" y="190"/>
      <point x="1505" y="231"/>
      <point x="1514" y="269" type="curve"/>
      <point x="1570" y="267"/>
      <point x="1625" y="264"/>
      <point x="1680" y="264" type="curve" smooth="yes"/>
      <point x="1727" y="264"/>
      <point x="1740" y="341"/>
      <point x="1740" y="397" type="curve" smooth="yes"/>
      <point x="1740" y="418"/>
      <point x="1735" y="437"/>
      <point x="1716" y="437" type="curve" smooth="yes"/>
      <point x="1664" y="437"/>
      <point x="1611" y="423"/>
      <point x="1558" y="414" type="curve"/>
      <point x="1584" y="493"/>
      <point x="1635" y="583"/>
      <point x="1635" y="674" type="curve" smooth="yes"/>
      <point x="1635" y="718"/>
      <point x="1606" y="730"/>
      <point x="1555" y="730" type="curve" smooth="yes"/>
      <point x="1485" y="730"/>
      <point x="1427" y="691"/>
      <point x="1411" y="633" type="curve" smooth="yes"/>
      <point x="1389" y="555"/>
      <point x="1359" y="472"/>
      <point x="1334" y="391" type="curve"/>
      <point x="1321" y="391" type="line" smooth="yes"/>
      <point x="1282" y="391"/>
      <point x="1253" y="392"/>
      <point x="1210" y="394" type="curve"/>
      <point x="1296" y="587"/>
      <point x="1421" y="779"/>
      <point x="1421" y="1019" type="curve" smooth="yes"/>
      <point x="1421" y="1050"/>
      <point x="1334" y="1052"/>
      <point x="1298" y="1052" type="curve" smooth="yes"/>
      <point x="1229" y="1052"/>
      <point x="1124" y="1044"/>
      <point x="1112" y="991.999" type="curve" smooth="yes"/>
      <point x="1061" y="764"/>
      <point x="1017" y="565"/>
      <point x="943" y="372" type="curve"/>
      <point x="918" y="335"/>
      <point x="885" y="287"/>
      <point x="885" y="237" type="curve" smooth="yes"/>
      <point x="885" y="212"/>
      <point x="895" y="192"/>
      <point x="919" y="192" type="curve" smooth="yes"/>
      <point x="1058" y="192"/>
      <point x="1146" y="273"/>
      <point x="1300" y="273" type="curve"/>
      <point x="1284" y="210"/>
      <point x="1265" y="140"/>
      <point x="1265" y="71" type="curve" smooth="yes"/>
      <point x="1265" y="-18"/>
      <point x="1307" y="-45"/>
    </contour>
    <contour>
      <point x="316" y="850" type="curve" smooth="yes"/>
      <point x="470" y="850"/>
      <point x="637" y="937"/>
      <point x="637" y="1085" type="curve" smooth="yes"/>
      <point x="637" y="1230"/>
      <point x="546" y="1312"/>
      <point x="423" y="1338" type="curve"/>
      <point x="510" y="1362"/>
      <point x="593" y="1409"/>
      <point x="593" y="1511" type="curve" smooth="yes"/>
      <point x="593" y="1634"/>
      <point x="465" y="1693"/>
      <point x="340" y="1693" type="curve" smooth="yes"/>
      <point x="220" y="1693"/>
      <point x="101" y="1650"/>
      <point x="101" y="1531" type="curve" smooth="yes"/>
      <point x="101" y="1485"/>
      <point x="112" y="1439"/>
      <point x="155" y="1439" type="curve" smooth="yes"/>
      <point x="174" y="1439"/>
      <point x="240" y="1455"/>
      <point x="240" y="1472" type="curve" smooth="yes"/>
      <point x="240" y="1490"/>
      <point x="202" y="1499"/>
      <point x="202" y="1522" type="curve" smooth="yes"/>
      <point x="202" y="1552"/>
      <point x="238" y="1568"/>
      <point x="270" y="1568" type="curve" smooth="yes"/>
      <point x="312" y="1568"/>
      <point x="332" y="1534"/>
      <point x="332" y="1492" type="curve" smooth="yes"/>
      <point x="332" y="1426"/>
      <point x="272" y="1377"/>
      <point x="204" y="1377" type="curve" smooth="yes"/>
      <point x="166" y="1377"/>
      <point x="151" y="1338"/>
      <point x="151" y="1300" type="curve" smooth="yes"/>
      <point x="151" y="1277"/>
      <point x="173" y="1269"/>
      <point x="199" y="1267" type="curve" smooth="yes"/>
      <point x="314" y="1255"/>
      <point x="383" y="1221"/>
      <point x="383" y="1094" type="curve" smooth="yes"/>
      <point x="383" y="1030"/>
      <point x="326" y="982.999"/>
      <point x="262" y="982.999" type="curve" smooth="yes"/>
      <point x="216" y="982.999"/>
      <point x="190" y="1013"/>
      <point x="190" y="1063" type="curve" smooth="yes"/>
      <point x="190" y="1111"/>
      <point x="278" y="1108"/>
      <point x="278" y="1132" type="curve" smooth="yes"/>
      <point x="278" y="1164"/>
      <point x="183" y="1181"/>
      <point x="146" y="1181" type="curve" smooth="yes"/>
      <point x="76" y="1181"/>
      <point x="35" y="1145"/>
      <point x="35" y="1074" type="curve" smooth="yes"/>
      <point x="35" y="912"/>
      <point x="150" y="850"/>
    </contour>
    <contour>
      <point x="487" y="231" type="curve" smooth="yes"/>
      <point x="534" y="231"/>
      <point x="568" y="260"/>
      <point x="589" y="294" type="curve" smooth="yes"/>
      <point x="791" y="620"/>
      <point x="972.999" y="965"/>
      <point x="1163" y="1288" type="curve" smooth="yes"/>
      <point x="1183" y="1322"/>
      <point x="1201" y="1359"/>
      <point x="1201" y="1402" type="curve" smooth="yes"/>
      <point x="1201" y="1450"/>
      <point x="1168" y="1472"/>
      <point x="1122" y="1472" type="curve" smooth="yes"/>
      <point x="1066" y="1472"/>
      <point x="1013" y="1444"/>
      <point x="990.999" y="1408" type="curve" smooth="yes"/>
      <point x="810" y="1113"/>
      <point x="635" y="788"/>
      <point x="466" y="484" type="curve" smooth="yes"/>
      <point x="435" y="428"/>
      <point x="399" y="394"/>
      <point x="399" y="323" type="curve" smooth="yes"/>
      <point x="399" y="269"/>
      <point x="436" y="231"/>
    </contour>
  </outline>
</glyph>
<glyph name="Aring" format="1">
  <advance width="1920"/>
  <unicode hex="00C5"/>
  <outline>
    <contour>
      <point x="812" y="-175" type="curve" smooth="yes"/>
      <point x="1070" y="-175"/>
      <point x="1275" y="-29"/>
      <point x="1349" y="173" type="curve"/>
      <point x="1340" y="144"/>
      <point x="1335" y="117"/>
      <point x="1335" y="90" type="curve" smooth="yes"/>
      <point x="1335" y="-42"/>
      <point x="1390" y="-142"/>
      <point x="1526" y="-160" type="curve" smooth="yes"/>
      <point x="1678" y="-180"/>
      <point x="1838" y="-99"/>
      <point x="1934" y="13" type="curve" smooth="yes"/>
      <point x="1996" y="86"/>
      <point x="1893" y="222"/>
      <point x="1832" y="168" type="curve" smooth="yes"/>
      <point x="1771" y="114"/>
      <point x="1697" y="46"/>
      <point x="1646" y="46" type="curve" smooth="yes"/>
      <point x="1586" y="46"/>
      <point x="1578" y="164"/>
      <point x="1645" y="472" type="curve" smooth="yes"/>
      <point x="1848" y="1398" type="line" smooth="yes"/>
      <point x="1875" y="1523"/>
      <point x="1643" y="1584"/>
      <point x="1615" y="1459" type="curve" smooth="yes"/>
      <point x="1428" y="634" type="line" smooth="yes"/>
      <point x="1358" y="324"/>
      <point x="1151" y="49"/>
      <point x="849" y="49" type="curve" smooth="yes"/>
      <point x="660" y="49"/>
      <point x="508" y="160"/>
      <point x="461" y="357" type="curve" smooth="yes"/>
      <point x="290" y="1081"/>
      <point x="998.999" y="1794"/>
      <point x="1596" y="1734" type="curve" smooth="yes"/>
      <point x="1869" y="1707"/>
      <point x="2035" y="1540"/>
      <point x="2065" y="1535" type="curve"/>
      <point x="2172" y="1452"/>
      <point x="2293" y="1587"/>
      <point x="2190" y="1694" type="curve" smooth="yes"/>
      <point x="2064" y="1825"/>
      <point x="1845" y="1942"/>
      <point x="1584" y="1958" type="curve" smooth="yes"/>
      <point x="767" y="2008"/>
      <point x="3" y="1136"/>
      <point x="174" y="349" type="curve" smooth="yes"/>
      <point x="239" y="51"/>
      <point x="437" y="-175"/>
    </contour>
    <contour>
      <point x="1350" y="1923" type="curve" smooth="yes"/>
      <point x="1290" y="1923"/>
      <point x="1253" y="1965"/>
      <point x="1253" y="2025" type="curve" smooth="yes"/>
      <point x="1253" y="2120"/>
      <point x="1330" y="2181"/>
      <point x="1429" y="2181" type="curve" smooth="yes"/>
      <point x="1486" y="2181"/>
      <point x="1516" y="2144"/>
      <point x="1516" y="2090" type="curve" smooth="yes"/>
      <point x="1516" y="1998"/>
      <point x="1445" y="1923"/>
    </contour>
    <contour>
      <point x="1350" y="1789" type="curve" smooth="yes"/>
      <point x="1531" y="1789"/>
      <point x="1661" y="1917"/>
      <point x="1661" y="2103" type="curve" smooth="yes"/>
      <point x="1661" y="2228"/>
      <point x="1576" y="2310"/>
      <point x="1454" y="2310" type="curve" smooth="yes"/>
      <point x="1281" y="2310"/>
      <point x="1118" y="2200"/>
      <point x="1118" y="2026" type="curve" smooth="yes"/>
      <point x="1118" y="1880"/>
      <point x="1209" y="1789"/>
    </contour>
  </outline>
</glyph>
<glyph name="Icircumflex" format="1">
  <advance width="982"/>
  <unicode hex="00CE"/>
  <outline>
    <contour>
      <point x="60" y="-69" type="curve" smooth="yes"/>
      <point x="125" y="-63"/>
      <point x="480" y="-50"/>
      <point x="548" y="-35" type="curve"/>
      <point x="629" y="-31"/>
      <point x="752" y="-21"/>
      <point x="847" y="-16" type="curve" smooth="yes"/>
      <point x="991.999" y="-8"/>
      <point x="1015" y="199"/>
      <point x="870" y="191" type="curve" smooth="yes"/>
      <point x="569" y="180"/>
      <point x="433" y="183"/>
      <point x="42" y="147" type="curve" smooth="yes"/>
      <point x="-64" y="136"/>
      <point x="-45" y="-78"/>
    </contour>
    <contour>
      <point x="402" y="-47" type="curve" smooth="yes"/>
      <point x="494" y="-47"/>
      <point x="580" y="-24"/>
      <point x="596" y="75" type="curve" smooth="yes"/>
      <point x="616" y="199"/>
      <point x="701" y="777"/>
      <point x="1027" y="1644" type="curve"/>
      <point x="1108" y="1648"/>
      <point x="1231" y="1650"/>
      <point x="1326" y="1655" type="curve" smooth="yes"/>
      <point x="1471" y="1663"/>
      <point x="1494" y="1878"/>
      <point x="1349" y="1870" type="curve" smooth="yes"/>
      <point x="1048" y="1859"/>
      <point x="882" y="1875"/>
      <point x="491" y="1839" type="curve" smooth="yes"/>
      <point x="385" y="1828"/>
      <point x="404" y="1634"/>
      <point x="509" y="1634" type="curve" smooth="yes"/>
      <point x="574" y="1634"/>
      <point x="762" y="1633"/>
      <point x="795" y="1633" type="curve"/>
      <point x="282" y="459"/>
      <point x="305" y="99.9999"/>
      <point x="308" y="60" type="curve" smooth="yes"/>
      <point x="314" y="-18"/>
      <point x="313" y="-47"/>
    </contour>
    <contour>
      <point x="1197" y="1928" type="curve" smooth="yes"/>
      <point x="1275" y="1928"/>
      <point x="1324" y="1974"/>
      <point x="1324" y="2041" type="curve" smooth="yes"/>
      <point x="1324" y="2159"/>
      <point x="1287" y="2249"/>
      <point x="1264" y="2354" type="curve" smooth="yes"/>
      <point x="1239" y="2468"/>
      <point x="1219" y="2604"/>
      <point x="1099" y="2604" type="curve" smooth="yes"/>
      <point x="945" y="2604"/>
      <point x="910" y="2486"/>
      <point x="855" y="2390" type="curve" smooth="yes"/>
      <point x="656" y="2061" type="line" smooth="yes"/>
      <point x="648" y="2048"/>
      <point x="644" y="2036"/>
      <point x="644" y="2023" type="curve" smooth="yes"/>
      <point x="644" y="1980"/>
      <point x="669" y="1932"/>
      <point x="704" y="1932" type="curve" smooth="yes"/>
      <point x="813" y="1932"/>
      <point x="842" y="1983"/>
      <point x="878" y="2060" type="curve" smooth="yes"/>
      <point x="939" y="2190"/>
      <point x="1001" y="2309"/>
      <point x="1065" y="2440" type="curve"/>
      <point x="1078" y="2322"/>
      <point x="1075" y="1928"/>
    </contour>
  </outline>
</glyph>
<glyph name="Odieresis" format="1">
  <advance width="1853"/>
  <unicode hex="00D6"/>
  <outline>
    <contour>
      <point x="882" y="-70" type="curve" smooth="yes"/>
      <point x="561" y="-70"/>
      <point x="411" y="278"/>
      <point x="411" y="536" type="curve" smooth="yes"/>
      <point x="411" y="965"/>
      <point x="649" y="1638"/>
      <point x="1157" y="1638" type="curve" smooth="yes"/>
      <point x="1460" y="1638"/>
      <point x="1575" y="1333"/>
      <point x="1575" y="1041" type="curve" smooth="yes"/>
      <point x="1575" y="644"/>
      <point x="1383" y="-70"/>
    </contour>
    <contour>
      <point x="863" y="-303" type="curve" smooth="yes"/>
      <point x="1513" y="-303"/>
      <point x="1845" y="438"/>
      <point x="1845" y="991.999" type="curve" smooth="yes"/>
      <point x="1845" y="1458"/>
      <point x="1606" y="1867"/>
      <point x="1143" y="1867" type="curve" smooth="yes"/>
      <point x="524" y="1867"/>
      <point x="150" y="1186"/>
      <point x="150" y="543" type="curve" smooth="yes"/>
      <point x="150" y="146"/>
      <point x="396" y="-303"/>
    </contour>
    <contour>
      <point x="881" y="1928" type="curve" smooth="yes"/>
      <point x="984.999" y="1928"/>
      <point x="1043" y="2001"/>
      <point x="1043" y="2102" type="curve" smooth="yes"/>
      <point x="1043" y="2197"/>
      <point x="991.999" y="2250"/>
      <point x="898" y="2250" type="curve" smooth="yes"/>
      <point x="795" y="2250"/>
      <point x="740" y="2178"/>
      <point x="740" y="2076" type="curve" smooth="yes"/>
      <point x="740" y="1978"/>
      <point x="788" y="1928"/>
    </contour>
    <contour>
      <point x="1348" y="1928" type="curve" smooth="yes"/>
      <point x="1453" y="1928"/>
      <point x="1510" y="2000"/>
      <point x="1510" y="2102" type="curve" smooth="yes"/>
      <point x="1510" y="2197"/>
      <point x="1460" y="2250"/>
      <point x="1365" y="2250" type="curve" smooth="yes"/>
      <point x="1262" y="2250"/>
      <point x="1207" y="2178"/>
      <point x="1207" y="2076" type="curve" smooth="yes"/>
      <point x="1207" y="1979"/>
      <point x="1257" y="1928"/>
    </contour>
  </outline>
</glyph>
<glyph name="edieresis" format="1">
  <advance width="827"/>
  <unicode hex="00EB"/>
  <outline>
    <contour>
      <point x="339" y="1082" type="curve" smooth="yes"/>
      <point x="443" y="1082"/>
      <point x="501" y="1155"/>
      <point x="501" y="1256" type="curve" smooth="yes"/>
      <point x="501" y="1351"/>
      <point x="450" y="1404"/>
      <point x="356" y="1404" type="curve" smooth="yes"/>
      <point x="253" y="1404"/>
      <point x="198" y="1332"/>
      <point x="198" y="1230" type="curve" smooth="yes"/>
      <point x="198" y="1132"/>
      <point x="246" y="1082"/>
    </contour>
    <contour>
      <point x="806" y="1082" type="curve" smooth="yes"/>
      <point x="911" y="1082"/>
      <point x="967.999" y="1154"/>
      <point x="967.999" y="1256" type="curve" smooth="yes"/>
      <point x="967.999" y="1351"/>
      <point x="918" y="1404"/>
      <point x="823" y="1404" type="curve" smooth="yes"/>
      <point x="720" y="1404"/>
      <point x="665" y="1332"/>
      <point x="665" y="1230" type="curve" smooth="yes"/>
      <point x="665" y="1133"/>
      <point x="715" y="1082"/>
    </contour>
    <contour>
      <point x="289" y="422" type="curve"/>
      <point x="289" y="587"/>
      <point x="420" y="775"/>
      <point x="564" y="775" type="curve" smooth="yes"/>
      <point x="612" y="775"/>
      <point x="656" y="751"/>
      <point x="649" y="681" type="curve" smooth="yes"/>
      <point x="638" y="571"/>
      <point x="409" y="464"/>
    </contour>
    <contour>
      <point x="461" y="-17" type="curve" smooth="yes"/>
      <point x="710" y="-24"/>
      <point x="945" y="131"/>
      <point x="1037" y="257" type="curve" smooth="yes"/>
      <point x="1102" y="345"/>
      <point x="995.999" y="419"/>
      <point x="952" y="376" type="curve" smooth="yes"/>
      <point x="716" y="149"/>
      <point x="364" y="97.9999"/>
      <point x="299" y="300" type="curve"/>
      <point x="633" y="388"/>
      <point x="827" y="494"/>
      <point x="827" y="717" type="curve" smooth="yes"/>
      <point x="827" y="873"/>
      <point x="706" y="966"/>
      <point x="552" y="966" type="curve" smooth="yes"/>
      <point x="271" y="966"/>
      <point x="64" y="648"/>
      <point x="64" y="377" type="curve" smooth="yes"/>
      <point x="64" y="105"/>
      <point x="261" y="-11"/>
    </contour>
  </outline>
</glyph>
<glyph name="ugrave" format="1">
  <advance width="927"/>
  <unicode hex="00F9"/>
  <outline>
    <contour>
      <point x="577" y="1082" type="curve" smooth="yes"/>
      <point x="612" y="1082"/>
      <point x="635" y="1113"/>
      <point x="635" y="1149" type="curve" smooth="yes"/>
      <point x="635" y="1167"/>
      <point x="632" y="1183"/>
      <point x="625" y="1197" type="curve"/>
      <point x="556" y="1348"/>
      <point x="500" y="1485"/>
      <point x="433" y="1640" type="curve" smooth="yes"/>
      <point x="417" y="1677"/>
      <point x="385" y="1704"/>
      <point x="338" y="1704" type="curve" smooth="yes"/>
      <point x="260" y="1704"/>
      <point x="193" y="1646"/>
      <point x="193" y="1568" type="curve" smooth="yes"/>
      <point x="193" y="1538"/>
      <point x="205" y="1506"/>
      <point x="230" y="1471" type="curve" smooth="yes"/>
      <point x="292" y="1386"/>
      <point x="364" y="1296"/>
      <point x="431" y="1214" type="curve" smooth="yes"/>
      <point x="466" y="1171"/>
      <point x="509" y="1082"/>
    </contour>
    <contour>
      <point x="282" y="-13" type="curve" smooth="yes"/>
      <point x="479" y="-33"/>
      <point x="608" y="154"/>
      <point x="644" y="251" type="curve"/>
      <point x="614" y="70"/>
      <point x="667" y="-17"/>
      <point x="819" y="-12" type="curve" smooth="yes"/>
      <point x="960" y="-7"/>
      <point x="1207" y="151"/>
      <point x="1279" y="283" type="curve"/>
      <point x="1285" y="326"/>
      <point x="1218" y="384"/>
      <point x="1170" y="384" type="curve" smooth="yes"/>
      <point x="1149" y="384"/>
      <point x="1145" y="375"/>
      <point x="1121" y="353" type="curve" smooth="yes"/>
      <point x="1089" y="323"/>
      <point x="965" y="192"/>
      <point x="878" y="186" type="curve" smooth="yes"/>
      <point x="851" y="184"/>
      <point x="829" y="205"/>
      <point x="838" y="286" type="curve" smooth="yes"/>
      <point x="866" y="531"/>
      <point x="946" y="791"/>
      <point x="969.999" y="869" type="curve" smooth="yes"/>
      <point x="983.999" y="915"/>
      <point x="929" y="964"/>
      <point x="876" y="964" type="curve" smooth="yes"/>
      <point x="809" y="964"/>
      <point x="774" y="953"/>
      <point x="736" y="816" type="curve" smooth="yes"/>
      <point x="654" y="523" type="line" smooth="yes"/>
      <point x="583" y="269"/>
      <point x="428" y="154"/>
      <point x="330" y="184" type="curve" smooth="yes"/>
      <point x="287" y="197"/>
      <point x="278" y="244"/>
      <point x="285" y="313" type="curve" smooth="yes"/>
      <point x="303" y="502"/>
      <point x="410" y="838"/>
      <point x="414" y="888" type="curve" smooth="yes"/>
      <point x="418" y="934"/>
      <point x="376" y="964"/>
      <point x="317" y="964" type="curve" smooth="yes"/>
      <point x="270" y="964"/>
      <point x="237" y="955"/>
      <point x="213" y="915" type="curve" smooth="yes"/>
      <point x="182" y="864"/>
      <point x="105" y="602"/>
      <point x="76" y="330" type="curve" smooth="yes"/>
      <point x="56" y="142"/>
      <point x="94.9999" y="6"/>
    </contour>
  </outline>
</glyph>
<glyph name="scaron" format="1">
  <advance width="865"/>
  <unicode hex="0161"/>
  <outline>
    <contour>
      <point x="384" y="1019" type="curve" smooth="yes"/>
      <point x="524" y="1019"/>
      <point x="556" y="1136"/>
      <point x="605" y="1233" type="curve" smooth="yes"/>
      <point x="769" y="1562" type="line" smooth="yes"/>
      <point x="775" y="1575"/>
      <point x="776" y="1588"/>
      <point x="776" y="1600" type="curve" smooth="yes"/>
      <point x="776" y="1643"/>
      <point x="748" y="1691"/>
      <point x="708" y="1691" type="curve" smooth="yes"/>
      <point x="607" y="1691"/>
      <point x="579" y="1640"/>
      <point x="547" y="1563" type="curve" smooth="yes"/>
      <point x="494" y="1437"/>
      <point x="449" y="1314"/>
      <point x="400" y="1183" type="curve"/>
      <point x="372" y="1297"/>
      <point x="368" y="1695"/>
      <point x="213" y="1695" type="curve" smooth="yes"/>
      <point x="143" y="1695"/>
      <point x="98.9999" y="1651"/>
      <point x="98.9999" y="1582" type="curve" smooth="yes"/>
      <point x="98.9999" y="1569"/>
      <point x="99.9999" y="1557"/>
      <point x="104" y="1547" type="curve"/>
      <point x="135" y="1446"/>
      <point x="164" y="1367"/>
      <point x="192" y="1269" type="curve" smooth="yes"/>
      <point x="225" y="1156"/>
      <point x="245" y="1019"/>
    </contour>
    <contour>
      <point x="560" y="-16" type="curve" smooth="yes"/>
      <point x="883" y="-16"/>
      <point x="1109" y="130"/>
      <point x="1264" y="279" type="curve"/>
      <point x="1304" y="323"/>
      <point x="1239" y="485"/>
      <point x="1172" y="418" type="curve" smooth="yes"/>
      <point x="1128" y="374"/>
      <point x="1006" y="257"/>
      <point x="858" y="213" type="curve"/>
      <point x="998.999" y="473"/>
      <point x="686" y="690"/>
      <point x="761" y="792" type="curve" smooth="yes"/>
      <point x="860" y="928"/>
      <point x="671" y="1061"/>
      <point x="557" y="898" type="curve" smooth="yes"/>
      <point x="484" y="788"/>
      <point x="181" y="349"/>
      <point x="95.9999" y="236" type="curve"/>
      <point x="239" y="20"/>
      <point x="458" y="-16"/>
    </contour>
    <contour>
      <point x="515" y="151" type="curve" smooth="yes"/>
      <point x="455" y="153"/>
      <point x="399" y="193"/>
      <point x="353" y="231" type="curve"/>
      <point x="433" y="346"/>
      <point x="616" y="624"/>
      <point x="616" y="624" type="curve"/>
      <point x="743" y="341"/>
      <point x="713" y="144"/>
    </contour>
  </outline>
</glyph>
<glyph name="e.fina" format="1">
  <advance width="1054"/>
  <outline>
    <contour>
      <point x="531" y="-16" type="curve" smooth="yes"/>
      <point x="773" y="-16"/>
      <point x="1054" y="104"/>
      <point x="1185" y="223" type="curve"/>
      <point x="1205" y="238"/>
      <point x="1214" y="259"/>
      <point x="1214" y="280" type="curve" smooth="yes"/>
      <point x="1214" y="324"/>
      <point x="1176" y="370"/>
      <point x="1131" y="370" type="curve" smooth="yes"/>
      <point x="1117" y="370"/>
      <point x="1102" y="365"/>
      <point x="1088" y="354" type="curve" smooth="yes"/>
      <point x="1005" y="288"/>
      <point x="749" y="155"/>
      <point x="558" y="155" type="curve" smooth="yes"/>
      <point x="460" y="155"/>
      <point x="379" y="190"/>
      <point x="349" y="289" type="curve"/>
      <point x="547" y="339"/>
      <point x="815" y="497"/>
      <point x="815" y="720" type="curve" smooth="yes"/>
      <point x="815" y="874"/>
      <point x="706" y="959"/>
      <point x="552" y="959" type="curve" smooth="yes"/>
      <point x="258" y="959"/>
      <point x="104" y="687"/>
      <point x="104" y="417" type="curve" smooth="yes"/>
      <point x="104" y="92.9999"/>
      <point x="300" y="-16"/>
    </contour>
    <contour>
      <point x="334" y="437" type="curve"/>
      <point x="334" y="573"/>
      <point x="406" y="771"/>
      <point x="564" y="771" type="curve" smooth="yes"/>
      <point x="612" y="771"/>
      <point x="637" y="731"/>
      <point x="637" y="678" type="curve" smooth="yes"/>
      <point x="637" y="558"/>
      <point x="427" y="470"/>
    </contour>
  </outline>
</glyph>
<glyph name="for" format="1">
  <advance width="3177"/>
  <outline>
    <contour>
      <point x="431" y="129" type="curve"/>
      <point x="571" y="163"/>
      <point x="704" y="179"/>
      <point x="792" y="190" type="curve"/>
      <point x="749" y="309" type="line"/>
      <point x="718" y="300"/>
      <point x="416" y="268"/>
      <point x="416" y="138" type="curve" smooth="yes"/>
      <point x="416" y="133"/>
      <point x="421" y="130"/>
    </contour>
    <contour>
      <point x="1386" y="302" type="line"/>
      <point x="1569" y="345"/>
      <point x="1757" y="376"/>
      <point x="1993" y="422" type="curve" smooth="yes"/>
      <point x="2324" y="486"/>
      <point x="2513" y="482"/>
      <point x="2841" y="557" type="curve"/>
      <point x="2848" y="558"/>
      <point x="2851" y="564"/>
      <point x="2851" y="571" type="curve" smooth="yes"/>
      <point x="2851" y="589"/>
      <point x="2835" y="616"/>
      <point x="2817" y="617" type="curve" smooth="yes"/>
      <point x="2712" y="622"/>
      <point x="2627" y="628"/>
      <point x="2545" y="628" type="curve" smooth="yes"/>
      <point x="2444" y="628"/>
      <point x="2349" y="609"/>
      <point x="2221" y="587" type="curve" smooth="yes"/>
      <point x="1894" y="530"/>
      <point x="1651" y="489"/>
      <point x="1397" y="425" type="curve"/>
    </contour>
    <contour>
      <point x="1712" y="758" type="curve" smooth="yes"/>
      <point x="1593" y="758"/>
      <point x="1554" y="845"/>
      <point x="1554" y="942" type="curve" smooth="yes"/>
      <point x="1554" y="1062"/>
      <point x="1618" y="1213"/>
      <point x="1711" y="1213" type="curve" smooth="yes"/>
      <point x="1719" y="1213"/>
      <point x="1722" y="1213"/>
      <point x="1722" y="1211" type="curve" smooth="yes"/>
      <point x="1722" y="1181"/>
      <point x="1686" y="1155"/>
      <point x="1686" y="1110" type="curve" smooth="yes"/>
      <point x="1686" y="1045"/>
      <point x="1769" y="1009"/>
      <point x="1827" y="982.999" type="curve"/>
      <point x="1827" y="892"/>
      <point x="1783" y="758"/>
    </contour>
    <contour>
      <point x="1055" y="54" type="curve" smooth="yes"/>
      <point x="1233" y="54"/>
      <point x="1303" y="280"/>
      <point x="1303" y="439" type="curve" smooth="yes"/>
      <point x="1303" y="617"/>
      <point x="1228" y="764"/>
      <point x="1162" y="882" type="curve"/>
      <point x="1241" y="886"/>
      <point x="1335" y="898"/>
      <point x="1400" y="959" type="curve"/>
      <point x="1402" y="946"/>
      <point x="1403" y="933"/>
      <point x="1403" y="919" type="curve" smooth="yes"/>
      <point x="1403" y="752"/>
      <point x="1491" y="604"/>
      <point x="1697" y="604" type="curve" smooth="yes"/>
      <point x="1851" y="604"/>
      <point x="1924" y="808"/>
      <point x="1951" y="957" type="curve"/>
      <point x="1955" y="955"/>
      <point x="1962" y="955"/>
      <point x="1970" y="955" type="curve" smooth="yes"/>
      <point x="2038" y="955"/>
      <point x="2097" y="995.999"/>
      <point x="2139" y="1049" type="curve"/>
      <point x="2144" y="969.999"/>
      <point x="2147" y="890"/>
      <point x="2147" y="811" type="curve" smooth="yes"/>
      <point x="2147" y="731"/>
      <point x="2164" y="657"/>
      <point x="2264" y="657" type="curve" smooth="yes"/>
      <point x="2313" y="657"/>
      <point x="2340" y="723"/>
      <point x="2341" y="773" type="curve" smooth="yes"/>
      <point x="2346" y="1021" type="line"/>
      <point x="2453" y="1178" type="line"/>
      <point x="2476" y="1035"/>
      <point x="2555" y="942"/>
      <point x="2650" y="942" type="curve" smooth="yes"/>
      <point x="2706" y="942"/>
      <point x="2767" y="973.999"/>
      <point x="2824" y="1048" type="curve"/>
      <point x="2824" y="1048"/>
      <point x="2828" y="1104"/>
      <point x="2828" y="1147" type="curve" smooth="yes"/>
      <point x="2828" y="1173"/>
      <point x="2820" y="1195"/>
      <point x="2798" y="1195" type="curve" smooth="yes"/>
      <point x="2751" y="1195"/>
      <point x="2731" y="1094"/>
      <point x="2692" y="1094" type="curve" smooth="yes"/>
      <point x="2627" y="1094"/>
      <point x="2613" y="1164"/>
      <point x="2613" y="1239" type="curve" smooth="yes"/>
      <point x="2613" y="1291"/>
      <point x="2620" y="1345"/>
      <point x="2620" y="1380" type="curve" smooth="yes"/>
      <point x="2620" y="1420"/>
      <point x="2583" y="1446"/>
      <point x="2535" y="1446" type="curve" smooth="yes"/>
      <point x="2426" y="1446"/>
      <point x="2379" y="1293"/>
      <point x="2342" y="1201" type="curve"/>
      <point x="2334" y="1200" type="line"/>
      <point x="2330" y="1227"/>
      <point x="2324" y="1254"/>
      <point x="2324" y="1281" type="curve"/>
      <point x="2317" y="1350" type="line" smooth="yes"/>
      <point x="2312" y="1400"/>
      <point x="2314" y="1415"/>
      <point x="2252" y="1415" type="curve" smooth="yes"/>
      <point x="2170" y="1415"/>
      <point x="2168" y="1302"/>
      <point x="2154" y="1228" type="curve"/>
      <point x="2153" y="1228" type="line"/>
      <point x="2149" y="1227" type="line"/>
      <point x="2096" y="1227"/>
      <point x="2069" y="1112"/>
      <point x="1995" y="1112" type="curve" smooth="yes"/>
      <point x="1987" y="1112"/>
      <point x="1983" y="1115"/>
      <point x="1983" y="1123" type="curve" smooth="yes"/>
      <point x="1983" y="1260"/>
      <point x="1896" y="1369"/>
      <point x="1734" y="1369" type="curve" smooth="yes"/>
      <point x="1588" y="1369"/>
      <point x="1483" y="1281"/>
      <point x="1427" y="1142" type="curve"/>
      <point x="1338" y="1063"/>
      <point x="1292" y="1011"/>
      <point x="1184" y="1011" type="curve" smooth="yes"/>
      <point x="1154" y="1011"/>
      <point x="1116" y="1012"/>
      <point x="1093" y="1014" type="curve"/>
      <point x="1228" y="1195"/>
      <point x="1461" y="1517"/>
      <point x="1461" y="1816" type="curve" smooth="yes"/>
      <point x="1461" y="1940"/>
      <point x="1382" y="2024"/>
      <point x="1253" y="2024" type="curve" smooth="yes"/>
      <point x="963" y="2024"/>
      <point x="819" y="1141"/>
      <point x="819" y="622" type="curve" smooth="yes"/>
      <point x="819" y="616" type="line" smooth="yes"/>
      <point x="819" y="391"/>
      <point x="820" y="54"/>
    </contour>
    <contour>
      <point x="995.999" y="1069" type="curve"/>
      <point x="1012" y="1143"/>
      <point x="1107" y="1843"/>
      <point x="1243" y="1843" type="curve" smooth="yes"/>
      <point x="1283" y="1843"/>
      <point x="1291" y="1808"/>
      <point x="1291" y="1768" type="curve" smooth="yes"/>
      <point x="1291" y="1551"/>
      <point x="1095" y="1229"/>
    </contour>
    <contour>
      <point x="1061" y="234" type="curve" smooth="yes"/>
      <point x="1006" y="234"/>
      <point x="1001" y="381"/>
      <point x="1001" y="489" type="curve" smooth="yes"/>
      <point x="1001" y="597"/>
      <point x="997.999" y="702"/>
      <point x="995.999" y="811" type="curve"/>
      <point x="1066" y="736"/>
      <point x="1129" y="629"/>
      <point x="1129" y="495" type="curve" smooth="yes"/>
      <point x="1129" y="491" type="line" smooth="yes"/>
      <point x="1129" y="401"/>
      <point x="1128" y="234"/>
    </contour>
  </outline>
</glyph>
<glyph name="i_t_t" format="1">
  <advance width="2106"/>
  <outline>
    <contour>
      <point x="415" y="1129" type="curve" smooth="yes"/>
      <point x="531" y="1129"/>
      <point x="609" y="1195"/>
      <point x="609" y="1308" type="curve" smooth="yes"/>
      <point x="609" y="1406"/>
      <point x="537" y="1448"/>
      <point x="439" y="1448" type="curve" smooth="yes"/>
      <point x="329" y="1448"/>
      <point x="243" y="1385"/>
      <point x="243" y="1281" type="curve" smooth="yes"/>
      <point x="243" y="1180"/>
      <point x="308" y="1129"/>
    </contour>
    <contour>
      <point x="282" y="0" type="curve" smooth="yes"/>
      <point x="489" y="0"/>
      <point x="681" y="129"/>
      <point x="799" y="231" type="curve"/>
      <point x="841" y="97.9999"/>
      <point x="916" y="0"/>
      <point x="1048" y="0" type="curve" smooth="yes"/>
      <point x="1070" y="0"/>
      <point x="1098" y="8"/>
      <point x="1133" y="26" type="curve" smooth="yes"/>
      <point x="1290" y="106"/>
      <point x="1406" y="272"/>
      <point x="1491" y="440" type="curve"/>
      <point x="1516" y="242"/>
      <point x="1576" y="0"/>
      <point x="1788" y="0" type="curve" smooth="yes"/>
      <point x="1813" y="0"/>
      <point x="1843" y="5"/>
      <point x="1879" y="14" type="curve" smooth="yes"/>
      <point x="2032" y="54"/>
      <point x="2162" y="136"/>
      <point x="2279" y="224" type="curve"/>
      <point x="2279" y="480" type="line"/>
      <point x="2194" y="386"/>
      <point x="2020" y="224"/>
      <point x="1852" y="224" type="curve" smooth="yes"/>
      <point x="1740" y="224"/>
      <point x="1705" y="304"/>
      <point x="1705" y="420" type="curve" smooth="yes"/>
      <point x="1705" y="533"/>
      <point x="1711" y="640"/>
      <point x="1718" y="748" type="curve"/>
      <point x="1754" y="793"/>
      <point x="1796" y="847"/>
      <point x="1831" y="896" type="curve"/>
      <point x="2125" y="896" type="line" smooth="yes"/>
      <point x="2162" y="896"/>
      <point x="2189" y="935"/>
      <point x="2189" y="974.999" type="curve" smooth="yes"/>
      <point x="2189" y="993.999"/>
      <point x="2186" y="1010"/>
      <point x="2180" y="1022" type="curve" smooth="yes"/>
      <point x="2160" y="1062"/>
      <point x="1996" y="1050"/>
      <point x="1942" y="1055" type="curve"/>
      <point x="2017" y="1174"/>
      <point x="2119" y="1318"/>
      <point x="2119" y="1499" type="curve" smooth="yes"/>
      <point x="2119" y="1637"/>
      <point x="2062" y="1792"/>
      <point x="1928" y="1792" type="curve" smooth="yes"/>
      <point x="1901" y="1792"/>
      <point x="1873" y="1783"/>
      <point x="1846" y="1764" type="curve" smooth="yes"/>
      <point x="1658" y="1634"/>
      <point x="1570" y="1311"/>
      <point x="1518" y="1046" type="curve"/>
      <point x="1419" y="1048"/>
      <point x="1296" y="1045"/>
      <point x="1202" y="1055" type="curve"/>
      <point x="1286" y="1182"/>
      <point x="1399" y="1336"/>
      <point x="1399" y="1529" type="curve" smooth="yes"/>
      <point x="1399" y="1653"/>
      <point x="1336" y="1792"/>
      <point x="1188" y="1792" type="curve" smooth="yes"/>
      <point x="1147" y="1792"/>
      <point x="1107" y="1772"/>
      <point x="1070" y="1732" type="curve"/>
      <point x="926" y="1589"/>
      <point x="844" y="1323"/>
      <point x="796" y="1078" type="curve"/>
      <point x="757" y="1078"/>
      <point x="724" y="1083"/>
      <point x="690" y="1083" type="curve" smooth="yes"/>
      <point x="632" y="1083"/>
      <point x="593" y="1080"/>
      <point x="593" y="1027" type="curve" smooth="yes"/>
      <point x="593" y="917"/>
      <point x="649" y="911"/>
      <point x="705" y="911" type="curve" smooth="yes"/>
      <point x="725" y="911" type="line" smooth="yes"/>
      <point x="740" y="911"/>
      <point x="755" y="911"/>
      <point x="768" y="908" type="curve"/>
      <point x="757" y="833"/>
      <point x="749" y="746"/>
      <point x="749" y="665" type="curve" smooth="yes"/>
      <point x="749" y="583"/>
      <point x="752" y="493"/>
      <point x="763" y="407" type="curve"/>
      <point x="678" y="317"/>
      <point x="540" y="192"/>
      <point x="403" y="192" type="curve" smooth="yes"/>
      <point x="357" y="192"/>
      <point x="352" y="240"/>
      <point x="352" y="290" type="curve" smooth="yes"/>
      <point x="352" y="514"/>
      <point x="480" y="695"/>
      <point x="480" y="903" type="curve" smooth="yes"/>
      <point x="480" y="945"/>
      <point x="456" y="960"/>
      <point x="408" y="960" type="curve" smooth="yes"/>
      <point x="329" y="960"/>
      <point x="242" y="928"/>
      <point x="226" y="863" type="curve" smooth="yes"/>
      <point x="178" y="661"/>
      <point x="95.9999" y="438"/>
      <point x="95.9999" y="201" type="curve" smooth="yes"/>
      <point x="95.9999" y="71"/>
      <point x="151" y="0"/>
    </contour>
    <contour>
      <point x="1095" y="223" type="line" smooth="yes"/>
      <point x="983.999" y="223"/>
      <point x="966" y="356"/>
      <point x="966" y="470" type="curve" smooth="yes"/>
      <point x="966" y="686"/>
      <point x="1024" y="776"/>
      <point x="1111" y="896" type="curve"/>
      <point x="1494" y="896" type="line"/>
      <point x="1485" y="824"/>
      <point x="1479" y="749"/>
      <point x="1479" y="671" type="curve"/>
      <point x="1422" y="562"/>
      <point x="1349" y="448"/>
      <point x="1276" y="361" type="curve" smooth="yes"/>
      <point x="1234" y="311"/>
      <point x="1169" y="223"/>
      <point x="1103" y="223" type="curve" smooth="yes"/>
    </contour>
    <contour>
      <point x="1707" y="1050" type="line"/>
      <point x="1728" y="1148"/>
      <point x="1789" y="1568"/>
      <point x="1906" y="1568" type="curve" smooth="yes"/>
      <point x="1949" y="1568"/>
      <point x="1959" y="1532"/>
      <point x="1959" y="1490" type="curve" smooth="yes"/>
      <point x="1959" y="1468"/>
      <point x="1953" y="1439"/>
      <point x="1941" y="1404" type="curve" smooth="yes"/>
      <point x="1899" y="1282"/>
      <point x="1831" y="1157"/>
      <point x="1768" y="1053" type="curve"/>
    </contour>
    <contour>
      <point x="1048" y="1073" type="curve"/>
      <point x="1044" y="1074"/>
      <point x="1040" y="1074"/>
      <point x="1036" y="1074" type="curve" smooth="yes"/>
      <point x="995.999" y="1074" type="line" smooth="yes"/>
      <point x="992.999" y="1074"/>
      <point x="989.999" y="1074"/>
      <point x="986.999" y="1075" type="curve"/>
      <point x="1006" y="1167"/>
      <point x="1061" y="1568"/>
      <point x="1166" y="1568" type="curve" smooth="yes"/>
      <point x="1209" y="1568"/>
      <point x="1219" y="1532"/>
      <point x="1219" y="1490" type="curve" smooth="yes"/>
      <point x="1219" y="1469"/>
      <point x="1213" y="1441"/>
      <point x="1202" y="1408" type="curve" smooth="yes"/>
      <point x="1165" y="1291"/>
      <point x="1103" y="1173"/>
    </contour>
  </outline>
</glyph>
<glyph name="os.fina" format="1">
  <advance width="1491"/>
  <outline>
    <contour>
      <point x="1033" y="-9" type="curve" smooth="yes"/>
      <point x="1274" y="-9"/>
      <point x="1381" y="114"/>
      <point x="1381" y="279" type="curve" smooth="yes"/>
      <point x="1381" y="322"/>
      <point x="1371" y="364"/>
      <point x="1354" y="405" type="curve"/>
      <point x="1403" y="411"/>
      <point x="1449" y="412"/>
      <point x="1490" y="412" type="curve" smooth="yes"/>
      <point x="1561" y="412"/>
      <point x="1612" y="372"/>
      <point x="1694" y="372" type="curve" smooth="yes"/>
      <point x="1709" y="372"/>
      <point x="1735" y="415"/>
      <point x="1735" y="446" type="curve" smooth="yes"/>
      <point x="1735" y="458"/>
      <point x="1731" y="468"/>
      <point x="1721" y="474" type="curve"/>
      <point x="1644" y="545"/>
      <point x="1589" y="621"/>
      <point x="1512" y="621" type="curve" smooth="yes"/>
      <point x="1434" y="621"/>
      <point x="1347" y="598"/>
      <point x="1262" y="560" type="curve"/>
      <point x="1207" y="624"/>
      <point x="1155" y="672"/>
      <point x="1142" y="692" type="curve"/>
      <point x="1143" y="699"/>
      <point x="1151" y="711"/>
      <point x="1163" y="726" type="curve"/>
      <point x="1212" y="765"/>
      <point x="1275" y="829"/>
      <point x="1275" y="878" type="curve" smooth="yes"/>
      <point x="1275" y="925"/>
      <point x="1255" y="960"/>
      <point x="1196" y="960" type="curve" smooth="yes"/>
      <point x="1106" y="960"/>
      <point x="1012" y="767"/>
      <point x="820" y="751" type="curve"/>
      <point x="809" y="864"/>
      <point x="704" y="960"/>
      <point x="548" y="960" type="curve" smooth="yes"/>
      <point x="545" y="960" type="line" smooth="yes"/>
      <point x="243" y="960"/>
      <point x="67" y="739"/>
      <point x="67" y="437" type="curve" smooth="yes"/>
      <point x="67" y="206"/>
      <point x="166" y="0"/>
      <point x="397" y="0" type="curve" smooth="yes"/>
      <point x="638" y="0"/>
      <point x="791" y="216"/>
      <point x="815" y="562" type="curve"/>
      <point x="900" y="568"/>
      <point x="929" y="588"/>
      <point x="984.999" y="622" type="curve"/>
      <point x="1022" y="578"/>
      <point x="1063" y="524"/>
      <point x="1101" y="465" type="curve"/>
      <point x="973.999" y="370"/>
      <point x="879" y="243"/>
      <point x="879" y="120" type="curve" smooth="yes"/>
      <point x="879" y="28"/>
      <point x="965" y="-9"/>
    </contour>
    <contour>
      <point x="436" y="192" type="curve" smooth="yes"/>
      <point x="304" y="192"/>
      <point x="261" y="313"/>
      <point x="261" y="446" type="curve" smooth="yes"/>
      <point x="261" y="588"/>
      <point x="354" y="768"/>
      <point x="494" y="768" type="curve" smooth="yes"/>
      <point x="531" y="768"/>
      <point x="549" y="766"/>
      <point x="549" y="762" type="curve" smooth="yes"/>
      <point x="549" y="737" type="line" smooth="yes"/>
      <point x="549" y="698"/>
      <point x="554" y="624"/>
      <point x="611" y="591" type="curve"/>
      <point x="613" y="573"/>
      <point x="614" y="555"/>
      <point x="614" y="537" type="curve" smooth="yes"/>
      <point x="614" y="369"/>
      <point x="534" y="192"/>
    </contour>
    <contour>
      <point x="1042" y="151" type="curve" smooth="yes"/>
      <point x="1034" y="151"/>
      <point x="1011" y="154"/>
      <point x="1011" y="163" type="curve" smooth="yes"/>
      <point x="1011" y="252"/>
      <point x="1119" y="328"/>
      <point x="1172" y="355" type="curve"/>
      <point x="1183" y="330"/>
      <point x="1189" y="305"/>
      <point x="1189" y="282" type="curve" smooth="yes"/>
      <point x="1189" y="225"/>
      <point x="1101" y="151"/>
    </contour>
  </outline>
</glyph>
<glyph name="s.init" format="1">
  <advance width="1043"/>
  <outline>
    <contour>
      <point x="673" y="-17" type="curve" smooth="yes"/>
      <point x="897" y="-17"/>
      <point x="1186" y="152"/>
      <point x="1285" y="264" type="curve" smooth="yes"/>
      <point x="1306" y="287"/>
      <point x="1316" y="309"/>
      <point x="1316" y="366" type="curve" smooth="yes"/>
      <point x="1316" y="415"/>
      <point x="1304" y="457"/>
      <point x="1277" y="457" type="curve" smooth="yes"/>
      <point x="1270" y="457"/>
      <point x="1261" y="455"/>
      <point x="1253" y="448" type="curve" smooth="yes"/>
      <point x="1173" y="374"/>
      <point x="1092" y="297"/>
      <point x="960" y="227" type="curve"/>
      <point x="981.999" y="274"/>
      <point x="990.999" y="324"/>
      <point x="990.999" y="372" type="curve" smooth="yes"/>
      <point x="990.999" y="474"/>
      <point x="882" y="571"/>
      <point x="842" y="623" type="curve"/>
      <point x="937" y="687" type="line" smooth="yes"/>
      <point x="983.999" y="718"/>
      <point x="995.999" y="780"/>
      <point x="995.999" y="845" type="curve" smooth="yes"/>
      <point x="995.999" y="894"/>
      <point x="977.999" y="957"/>
      <point x="910" y="957" type="curve" smooth="yes"/>
      <point x="840" y="957"/>
      <point x="772" y="908"/>
      <point x="712" y="834" type="curve"/>
      <point x="596" y="658"/>
      <point x="407" y="499"/>
      <point x="164" y="459" type="curve"/>
      <point x="153" y="433"/>
      <point x="133" y="396"/>
      <point x="133" y="361" type="curve" smooth="yes"/>
      <point x="133" y="327"/>
      <point x="154" y="300"/>
      <point x="213" y="300" type="curve" smooth="yes"/>
      <point x="221" y="300"/>
      <point x="230" y="299"/>
      <point x="239" y="299" type="curve" smooth="yes"/>
      <point x="360" y="299"/>
      <point x="546" y="394"/>
      <point x="647" y="488" type="curve"/>
      <point x="700" y="445"/>
      <point x="771" y="370"/>
      <point x="771" y="308" type="curve" smooth="yes"/>
      <point x="771" y="213"/>
      <point x="717" y="167"/>
      <point x="642" y="167" type="curve" smooth="yes"/>
      <point x="628" y="167"/>
      <point x="613" y="179"/>
      <point x="596" y="179" type="curve" smooth="yes"/>
      <point x="558" y="179"/>
      <point x="498" y="118"/>
      <point x="498" y="69" type="curve" smooth="yes"/>
      <point x="498" y="0.999999"/>
      <point x="615" y="-17"/>
    </contour>
  </outline>
</glyph>
